<svg xmlns="http://www.w3.org/2000/svg" width="304.39863" height="525.41845" viewBox="0 0 304.39863 525.41845" xmlns:xlink="http://www.w3.org/1999/xlink"><path d="m43.17864,524.22844c0,.65997.53,1.19,1.19,1.19h258.83999c.66,0,1.19-.53003,1.19-1.19s-.53-1.19-1.19-1.19H44.36864c-.66,0-1.19.53003-1.19,1.19Z" fill="#484565" stroke-width="0"/><path d="m179.29864.32846s-21.91-5.31-35.17,26.77c-11.05,26.74-18.89,41.02-9.92,50.72,3.21001,3.47,7.78999,5.34,12.50999,5.5l50.5,1.66s18.54001-48.62,7.27-66.2C193.21864,1.18846,179.29864.32846,179.29864.32846Z" fill="#2f2e41" stroke-width="0"/><polygon points="189.75865 80.93847 165.46864 88.92846 165.46864 53.95846 187.50865 53.95846 189.75865 80.93847" fill="#f6a6a9" stroke-width="0"/><polygon points="171.11863 504.68847 148.35864 504.68847 135.16864 383.10845 170.33864 383.10845 171.11863 504.68847" fill="#f6a6a9" stroke-width="0"/><path d="m126.19864,524.22844c-2.39,0-4.52-.06-6.13-.21002-6.05-.54999-11.81-5.01001-14.71-7.62-1.3-1.16998-1.72-3.03998-1.04-4.64999h0c.49-1.16,1.46-2.01999,2.66-2.35999l15.97-4.56,25.86-17.45001.28999.51999c.11.19,2.64999,4.76999,3.5,7.85999.32001,1.17999.24001,2.16-.25,2.91-.34.53-.81.82999-1.2,1,.47.48999,1.94,1.48001,6.45,2.20001,6.60001,1.04999,7.98-5.79001,8.03999-6.07999l.03999-.23001.2-.13c3.14-2.01999,5.07001-2.94,5.74001-2.75.42.12,1.11.32999,2.98,18.95001.19.57999,1.5,4.87003.61,8.95999-.97,4.46002-20.44,2.91998-24.34,2.57001-.11.01001-14.69,1.04999-24.68,1.04999v.02002h.01001Z" fill="#2f2e41" stroke-width="0"/><polygon points="222.51864 504.68847 199.76864 504.68847 186.56865 383.10845 221.73865 383.10845 222.51864 504.68847" fill="#f6a6a9" stroke-width="0"/><path d="m177.60864,524.22844c-2.39,0-4.52-.06-6.13-.21002-6.05-.54999-11.81-5.01001-14.71001-7.62-1.3-1.16998-1.72-3.03998-1.03999-4.64999h0c.49001-1.16,1.46001-2.01999,2.66-2.35999l15.97-4.56,25.86-17.45001.28999.51999c.11.19,2.64999,4.76999,3.5,7.85999.32001,1.17999.24001,2.16-.25,2.91-.34.53-.81.82999-1.2,1,.47.48999,1.94,1.48001,6.45,2.20001,6.60001,1.04999,7.98-5.79001,8.03999-6.07999l.03999-.23001.2-.13c3.14-2.01999,5.07001-2.94,5.74001-2.75.42.12,1.11.32999,2.98,18.95001.19.57999,1.5,4.87003.61,8.95999-.97,4.46002-20.44,2.91998-24.34,2.57001-.11.01001-14.69,1.04999-24.68001,1.04999v.02002h.01003Z" fill="#2f2e41" stroke-width="0"/><polygon points="229.06865 206.06847 118.50864 206.06847 158.24864 75.27846 202.32864 75.27846 229.06865 206.06847" fill="#dddedf" stroke-width="0"/><path id="uuid-4a4bca5f-bbd8-4dc2-85ff-0c3c360aac48-90" d="m115.49864,279.45846c-1.32,8.01001-6.66,13.76001-11.93,12.82999-5.27-.92999-8.48-8.17001-7.16-16.17999.48-3.20999,1.75-6.23999,3.7-8.85001l6.02-33.87,16.39,3.42999-7.68,33.01999c1.01,3.12,1.24,6.42001.67,9.62h0l-.00999.00003Z" fill="#f6a6a9" stroke-width="0"/><path d="m165.20865,75.29847s-27.46001-.72-30.35001,6.5c-2.89,7.23-36.85,179.21001-36.85,179.21001h22.4l44.8-185.71001Z" fill="#dddedf" stroke-width="0"/><circle cx="171.03865" cy="38.00846" r="24.21" fill="#f6a6a9" stroke-width="0"/><path d="m174.83864,8.31846s-31.08,46.23-25.85001,75.07l-18.08-11.33s12.73-58.38,31.7-62.91l12.23-.84h0v.01h.00002Z" fill="#2f2e41" stroke-width="0"/><path d="m206.08864,206.06847h-72.55l-39.7,162.92999c-.73,6.88,3.63,13.29999,10.32,15.09,21.78,5.82999,74.04,14.10001,153.15-8.92001,7.60999-2.20999,11.92999-10.23999,9.54001-17.79999l-60.75999-151.28999h0v-.00999h-.00002Z" fill="#2f2e41" stroke-width="0"/><path d="m174.03865,87.51846l20.10001-10.31c9.19-3.4,19.44-2.26,27.66,3.09,25,16.26,74.28,52.11001,53.10001,69.83001-27.91,23.36-65.64-18.07001-65.64-18.07001l-35.22-44.54h-.00002Z" fill="#dddedf" stroke-width="0"/><path d="m105.21208,112.47261l-.09075.09075c-.82451-.93341-1.67171-1.85321-2.56428-2.74578-23.46165-23.46165-61.50005-23.461-84.96105,0-23.461,23.461-23.46165,61.4994,0,84.96105.89257.89257,1.81237,1.73977,2.74578,2.56428l-.09075.09075,84.96105,84.96105,84.96105-84.96105c23.461-23.461,23.461-61.50005,0-84.96105-23.46165-23.46165-61.50005-23.461-84.96105,0Z" fill="#6c63ff" stroke-width="0"/><path id="uuid-716df4fd-1583-411d-917d-5110e649fc7d-91" d="m173.59865,105.13846c-6.99001-4.12-10.42-11.18-7.64999-15.77,2.77-4.58,10.67999-4.95,17.67999-.83,2.82001,1.61,5.19,3.89,6.91,6.65l29.39999,17.86-9.12,14.04-28.02-19.1c-3.28-.19-6.44-1.17-9.21001-2.86h.00999l.00002.01Z" fill="#f6a6a9" stroke-width="0"/><polygon points="193.57864 121.32847 201.93864 101.35846 242.78865 114.87846 224.51864 145.28846 193.57864 121.32847" fill="#dddedf" stroke-width="0"/></svg>