<svg height="174.068952" viewBox="0 0 1000 303.19699" width="574.48499" xmlns="http://www.w3.org/2000/svg" xmlns:xlink="http://www.w3.org/1999/xlink"><linearGradient id="a" gradientUnits="userSpaceOnUse" x1="34.52" x2="3.16" y1=".67" y2="45.450001"><stop offset="0" stop-color="#800600"/><stop offset=".6" stop-color="#c72127"/><stop offset=".73" stop-color="#c13959"/><stop offset=".85" stop-color="#bc4b81"/><stop offset=".94" stop-color="#b95799"/><stop offset="1" stop-color="#b85ba2"/></linearGradient><linearGradient id="b" gradientUnits="userSpaceOnUse" x1="18.5" x2="59.439999" y1="55.630001" y2="55.630001"><stop offset="0" stop-color="#f32b44"/><stop offset=".6" stop-color="#a4070a"/></linearGradient><linearGradient id="c"><stop offset="0" stop-opacity=".4"/><stop offset="1" stop-opacity="0"/></linearGradient><linearGradient id="d" gradientUnits="userSpaceOnUse" x1="35.16" x2="28.52" xlink:href="#c" y1="-.24" y2="9.24"/><linearGradient id="e" gradientUnits="userSpaceOnUse" x1="46.32" x2="27.99" xlink:href="#c" y1="56.549999" y2="54.950001"/><linearGradient id="f" gradientUnits="userSpaceOnUse" x1="45.200001" x2="45.200001" y1="-1.42" y2="57.799999"><stop offset="0" stop-color="#ffb900"/><stop offset=".17" stop-color="#ef8400"/><stop offset=".31" stop-color="#e25c01"/><stop offset=".43" stop-color="#db4401"/><stop offset=".5" stop-color="#d83b01"/></linearGradient><g stroke-width="2.971816" transform="matrix(2.1055348 0 0 2.1055348 -5.502296 0)"><path d="m203.93593 115.741q-17.99342 0-28.84751-11.6667-10.79605-11.666701-10.79605-30.356639 0-20.082977 11.02822-32.039894 11.02823-11.956917 29.95034-11.956917 17.52907 0 28.20903 11.608657 10.73801 11.608658 10.73801 30.356639 0 20.373194-10.97018 32.214024-10.97018 11.84083-29.31186 11.84083zm.63848-73.889103q-11.43453 0-18.6319 8.532363-7.13932 8.532363-7.13932 22.462752 0 13.872345 6.96519 22.346665 6.9652 8.474323 18.2256 8.474323 11.95691 0 18.86406-8.06802 6.90715-8.068017 6.90715-22.578838 0-14.917125-6.73302-23.043185-6.67497-8.12606-18.45776-8.12606z"/><path d="m291.58129 37.324521q-2.72803-1.567169-6.21063-1.567169-9.80931 0-9.80931 11.086268v8.068016h13.8143v10.563878h-13.75626v48.872446h-13.46604v-48.872446h-10.15758v-10.563878h10.15758v-9.635185q0-9.403013 6.15259-14.801038 6.15258-5.456069 15.38147-5.456069 4.99172 0 7.89388 1.102822z"/><path d="m332.67594 37.324521q-2.72804-1.567169-6.21064-1.567169-9.80931 0-9.80931 11.086268v8.068016h13.8143v10.563878h-13.75626v48.872446h-13.46604v-48.872446h-10.15758v-10.563878h10.15758v-9.635185q0-9.403013 6.15259-14.801038 6.15259-5.456069 15.38147-5.456069 4.99172 0 7.89389 1.102822z"/><path d="m346.95459 42.43233q-3.30847 0-5.68824-2.147602-2.32174-2.147601-2.32174-5.456069 0-3.308467 2.32174-5.514112 2.37977-2.205645 5.68824-2.205645 3.42455 0 5.80433 2.205645 2.37977 2.205645 2.37977 5.514112 0 3.134338-2.37977 5.398026-2.37978 2.205645-5.80433 2.205645zm6.67498 71.91563h-13.46605v-59.436324h13.46605z"/><path d="m413.82046 111.61993q-7.13933 4.12107-16.8906 4.12107-13.23387 0-21.35993-8.24215-8.12606-8.300186-8.12606-21.476012 0-14.684952 8.7065-23.565574 8.76453-8.938667 23.39144-8.938667 8.12606 0 14.33669 2.844122v12.537349q-6.21063-4.643463-13.23387-4.643463-8.53236 0-13.98843 5.804329-5.45607 5.746285-5.45607 15.091254 0 9.228883 5.10781 14.568865 5.16585 5.339987 13.8143 5.339987 7.25541 0 13.69822-5.165857z"/><path d="m477.55198 88.286526h-40.51422q.23218 8.242147 5.04977 12.711484 4.87564 4.46933 13.34996 4.46933 9.5191 0 17.47103-5.688243v10.854093q-8.12606 5.10781-21.47602 5.10781-13.11778 0-20.60537-8.06802-7.42954-8.126057-7.42954-22.811008 0-13.872345 8.18411-22.578838 8.24214-8.764537 20.43123-8.764537 12.18909 0 18.86407 7.835844 6.67498 7.835844 6.67498 21.766232zm-13.0017-9.519099q-.058-7.255411-3.42455-11.260398-3.36651-4.06303-9.28693-4.06303-5.80433 0-9.86736 4.23716-4.00498 4.23716-4.93368 11.086268z"/></g><g transform="matrix(5.01234486942 0 0 5.01234486942 -40.09870799869 -8.82148777268)"><path d="m34.41 2 4.59 10.5v36.5l-4.52 13 17.09-4.87a6.12 6.12 0 0 0 4.43-5.87v-38.52a6.11 6.11 0 0 0 -4.44-5.88z" fill="url(#f)"/><path d="m12.74 48.61 5-2.7a4.36 4.36 0 0 0 2.26-3.83v-19.65a4.37 4.37 0 0 1 2.87-4.1l16.13-5.83v-4.43a6.32 6.32 0 0 0 -4.59-6.07 6.18 6.18 0 0 0 -1.73-.24 6.41 6.41 0 0 0 -3.14.83l-18.46 10.53a6.1 6.1 0 0 0 -3.08 5.3v27.36a3.21 3.21 0 0 0 4.74 2.83z" fill="url(#a)"/><path d="m12.74 48.61 5-2.7a4.36 4.36 0 0 0 2.26-3.83v-19.65a4.37 4.37 0 0 1 2.87-4.1l16.13-5.83v-4.43a6.32 6.32 0 0 0 -4.59-6.07 6.18 6.18 0 0 0 -1.73-.24 6.41 6.41 0 0 0 -3.14.83l-18.46 10.53a6.1 6.1 0 0 0 -3.08 5.3v27.36a3.21 3.21 0 0 0 4.74 2.83z" fill="url(#d)"/><path d="m39 49h-19.07a3.22 3.22 0 0 0 -1.59 6l11.36 6.44a6.2 6.2 0 0 0 3.07.81 6 6 0 0 0 1.71-.25 6.22 6.22 0 0 0 4.52-6z" fill="url(#b)"/><path d="m39 49h-19.07a3.22 3.22 0 0 0 -1.59 6l11.36 6.44a6.2 6.2 0 0 0 3.07.81 6 6 0 0 0 1.71-.25 6.22 6.22 0 0 0 4.52-6z" fill="url(#e)"/></g></svg>