<?xml version="1.0" standalone="no"?>
<!DOCTYPE svg PUBLIC "-//W3C//DTD SVG 20010904//EN"
 "http://www.w3.org/TR/2001/REC-SVG-20010904/DTD/svg10.dtd">
<svg version="1.0" xmlns="http://www.w3.org/2000/svg"
 width="512.000000pt" height="512.000000pt" viewBox="0 0 512.000000 512.000000"
 preserveAspectRatio="xMidYMid meet">

<g transform="translate(0.000000,512.000000) scale(0.100000,-0.100000)"
fill="#000000" stroke="none">
<path d="M99 4623 c-63 -54 -59 93 -59 -2063 0 -2156 -4 -2009 59 -2063 l33
-27 2429 0 c2213 0 2432 1 2454 16 14 9 34 31 45 49 20 32 20 44 20 2025 0
1981 0 1993 -20 2025 -11 18 -31 40 -45 49 -22 15 -241 16 -2454 16 l-2429 0
-33 -27z m2537 -239 c28 -13 116 -133 473 -643 1608 -2299 1865 -2668 1877
-2698 37 -86 -1 -219 -74 -265 l-37 -23 -1042 -3 c-703 -1 -1043 1 -1043 8 0
5 4 10 8 10 17 0 177 168 241 255 256 340 424 808 432 1198 2 84 0 89 -26 118
-16 16 -32 29 -37 29 -4 0 -8 -33 -8 -72 0 -242 -75 -571 -186 -822 -142 -320
-410 -643 -589 -712 -39 -14 -52 -15 -87 -5 -164 50 -400 312 -558 622 -147
288 -230 614 -230 904 0 66 -4 115 -10 115 -5 0 -23 -21 -41 -46 l-32 -47 7
-108 c32 -506 256 -1021 588 -1352 l98 -97 -1043 2 c-1031 3 -1042 3 -1077 24
-46 27 -76 73 -90 137 -21 103 -33 83 565 937 302 432 816 1168 1143 1635 327
468 602 858 611 869 38 44 110 57 167 30z"/>
<path d="M1866 2124 c-27 -15 -28 -18 -22 -70 8 -72 55 -198 101 -270 108
-172 285 -284 445 -284 68 0 108 13 117 37 14 35 -17 158 -64 253 -64 128
-180 249 -296 306 -70 33 -89 38 -165 41 -66 3 -94 0 -116 -13z"/>
<path d="M3074 2126 c-127 -40 -273 -160 -347 -287 -45 -77 -87 -204 -87 -264
0 -60 23 -75 115 -75 219 1 440 188 520 443 32 101 33 160 3 181 -28 20 -144
20 -204 2z"/>
</g>
</svg>
