<svg width="512" height="512" xmlns="http://www.w3.org/2000/svg">
 <title/>

 <g>
  <title>background</title>
  <rect fill="none" id="canvas_background" height="514" width="514" y="-1" x="-1"/>
 </g>
 <g>
  <title>Layer 1</title>
  <path fill="#bf0000" id="svg_1" d="m441.45,77.13l-40.52,0a6.48,6.48 0 1 0 0,13l34,0l0,34.06a6.48,6.48 0 0 0 12.95,0l0,-40.58a6.47,6.47 0 0 0 -6.43,-6.48z"/>
  <path id="svg_2" d="m111,77.13l-40.45,0a6.47,6.47 0 0 0 -6.47,6.48l0,40.49a6.48,6.48 0 0 0 13,0l0,-34l34,0a6.48,6.48 0 1 0 0,-13l-0.08,0.03z"/>
  <path stroke="#ffffff" fill="#ffffff" id="svg_3" d="m111,424.77l-34,0l0,-34a6.48,6.48 0 0 0 -13,0l0,40.43a6.47,6.47 0 0 0 6.47,6.48l40.53,0a6.48,6.48 0 1 0 0,-13l0,0.09z"/>
  <path fill="#634092" id="svg_4" d="m441.45,384.26a6.48,6.48 0 0 0 -6.48,6.47l0,34l-34,0a6.48,6.48 0 0 0 0,13l40.51,0a6.47,6.47 0 0 0 6.47,-6.48l0,-40.52a6.47,6.47 0 0 0 -6.5,-6.47z"/>
  <path id="svg_5" d="m382,171.43l-41,-12.17l-13.38,-64.11a27.59,27.59 0 0 0 -30.52,-20.62l-24.64,3.35a121.78,121.78 0 0 1 -32.92,0l-24.64,-3.35a27.75,27.75 0 0 0 -30.59,20.89l-13.31,63.84l-41,12.17a6.47,6.47 0 0 0 -0.08,12.38l32.88,10.27a23.41,23.41 0 0 0 -3.75,12.53l0,8.94a24,24 0 0 0 22.41,23.93c0.45,2.07 1.24,4 1.86,6l-37.5,26.89a6.47,6.47 0 0 0 -0.24,10.34l17.46,13.77a94.08,94.08 0 0 0 -32.89,71.16l0,63.59a6.48,6.48 0 1 0 12.95,0l0,-63.58a81.21,81.21 0 0 1 30.21,-63l78.65,62a6.28,6.28 0 0 0 2.5,1.19l0.17,0l0,0l0.18,0l0.19,0a7.47,7.47 0 0 0 1.06,0.11s0.08,0 0.12,0a6.12,6.12 0 0 0 1.2,-0.13l0,0a6.29,6.29 0 0 0 2.67,-1.21l78.6,-62a81.23,81.23 0 0 1 30.17,63l0,63.59a6.48,6.48 0 1 0 12.95,0l0,-63.55a94.13,94.13 0 0 0 -32.77,-71.12l17.48,-13.79a6.46,6.46 0 0 0 -0.23,-10.34l-37.58,-26.94c0.61,-2 1.41,-3.92 1.85,-6a24,24 0 0 0 22.41,-23.93l0,-8.94a23.44,23.44 0 0 0 -3.75,-12.53l32.88,-10.27a6.47,6.47 0 0 0 -0.08,-12.38l0.02,0.02zm-221.61,106.45l28,-20a77,77 0 0 0 21.91,26.3l27.18,54.52l-77.09,-60.82zm95.61,69.12l-25.77,-51.69a75,75 0 0 0 51.57,0l-25.8,51.69zm95.7,-69.1l-19.36,15.27l-57.72,45.54l27.25,-54.65a76.86,76.86 0 0 0 21.8,-26.24l28.03,20.08zm-11.7,-62.35a11,11 0 0 1 -11,11l-3.85,0a6.47,6.47 0 0 0 -6.41,5.57c-4.4,31.2 -31.35,54.72 -62.68,54.72s-58.28,-23.52 -62.68,-54.72a6.47,6.47 0 0 0 -6.41,-5.57l-3.85,0a11,11 0 0 1 -11,-11l0,-8.94a10.88,10.88 0 0 1 4.1,-8.38l28,8.74c17.52,5.49 34.43,8.33 50.25,8.46l1.49,0q5.85,0 11.68,-0.35c11.91,-0.7 24.72,-3.25 39.16,-7.76l29.15,-9.1a10.88,10.88 0 0 1 4.1,8.38l-0.05,8.95zm-37.14,-20.55c-13.42,4.19 -25.22,6.54 -36.07,7.19c-4.09,0.25 -8.23,0.37 -12.3,0.31c-14.54,-0.12 -30.18,-2.76 -46.5,-7.86l-53.89,-16.85l24.29,-7.21a6.47,6.47 0 0 0 4.49,-4.89l14.05,-67.36a14.66,14.66 0 0 1 16.22,-11l24.65,3.34a135.27,135.27 0 0 0 36.4,0l24.65,-3.34a14.65,14.65 0 0 1 16.15,10.73l14.1,67.63a6.49,6.49 0 0 0 4.5,4.89l24.29,7.21l-55.03,17.21z"/>
 </g>
</svg>