<?xml version="1.0" ?><svg data-name="Layer 1" id="Layer_1" viewBox="0 0 48 48" xmlns="http://www.w3.org/2000/svg"><defs><style>
      .cls-1 {
        fill: none;
        stroke: #353535;
        stroke-miterlimit: 10;
        stroke-width: 2px;
      }
    </style></defs><title/><path class="cls-1" d="M30.10633,48V45.25532a2.21277,2.21277,0,0,1,2.21277-2.21277h6.10938a2.3921,2.3921,0,0,0,2.32663-2.4654v.04534c.00015-.05884.00025-3.157.0003-3.26864a1.83426,1.83426,0,0,1,.45829-1.145A2.91174,2.91174,0,0,0,41.926,34.283l-.00671-.667a1.01577,1.01577,0,0,1,.651-.95246h1.06717a1.36279,1.36279,0,0,0,1.051-.45576,1.30383,1.30383,0,0,0,.18991-1.39467,67.03163,67.03163,0,0,1-3.03774-7.51068,4.76727,4.76727,0,0,1-.217-1.506l-.00116-4.99479a14.51307,14.51307,0,0,0-.55236-3.96247l-.00629-.02213a13.959,13.959,0,0,0-3.13693-5.70178q-.47888-.51632-1.00575-1.00351c-.22028-.21208-.44471-.42091-.67748-.62277A18.30309,18.30309,0,0,0,24.19349,1a19.61682,19.61682,0,0,0-12.538,4.489A17.555,17.555,0,0,0,7.7101,27.17965C9.94456,31.506,11.69423,38.6214,12.1396,46v2"/><circle class="cls-1" cx="17" cy="15" r="3"/><circle class="cls-1" cx="32.5" cy="23.5" r="3.5"/><circle class="cls-1" cx="20" cy="32" r="2"/><line class="cls-1" x1="19.58127" x2="29.34135" y1="16.5073" y2="22"/><line class="cls-1" x1="21.72352" x2="29.67303" y1="31" y2="25.55756"/><line class="cls-1" x1="17.5" x2="19.5" y1="18" y2="30"/></svg>