<svg xmlns="http://www.w3.org/2000/svg" viewBox="0 0 303.41 285.89"><defs><style>.cls-1,.cls-4,.cls-6{fill:#ffcc03;}.cls-1,.cls-2,.cls-4{stroke:#ffcc03;}.cls-1,.cls-2,.cls-3,.cls-4,.cls-5,.cls-6,.cls-8{stroke-miterlimit:10;}.cls-1{opacity:0.9;}.cls-2{fill:#fcea10;}.cls-3,.cls-5{fill:#e1e1e0;}.cls-3,.cls-6,.cls-8{stroke:#fff;}.cls-5{stroke:#1e1e1e;}.cls-7{fill:#1e1e1e;}.cls-8{fill:none;}</style></defs><g id="Capa_2" data-name="Capa 2"><g id="Capa_1-2" data-name="Capa 1"><polyline class="cls-1" points="303.06 155.3 242.55 215.81 184.66 215.81 245.16 155.3"/><line class="cls-1" x1="245.17" y1="155.3" x2="302.7" y2="155.3"/><line class="cls-2" x1="152.32" y1="284.81" x2="152.32" y2="232.81"/><line class="cls-3" x1="152.32" y1="0.35" x2="152.32" y2="62.57"/><polyline class="cls-4" points="152.32 0.35 0.73 155.3 152.32 284.81 152.32 232.81 62.47 155.3 152.32 62.56"/><line class="cls-5" x1="152.32" y1="0.35" x2="225.21" y2="77.79"/><polygon class="cls-1" points="224.67 77.75 302.19 155.13 244.5 155.12 166.98 77.75 224.67 77.75"/><line class="cls-5" x1="152.32" y1="62.57" x2="167.32" y2="77.79"/><line class="cls-6" x1="225.21" y1="77.79" x2="167.32" y2="77.79"/><polygon class="cls-7" points="152.32 62.56 167.32 77.79 225.21 77.79 152.32 0.35 152.32 62.56"/><line class="cls-8" x1="152.32" y1="0.35" x2="152.32" y2="62.57"/><line class="cls-8" x1="225.21" y1="77.79" x2="167.32" y2="77.79"/></g></g></svg>